<svg width="35" height="40" viewBox="0 0 35 40" fill="none" xmlns="http://www.w3.org/2000/svg">
<path d="M30.9969 13.8182C32.6531 12.8728 33.8872 11.5372 34.522 10.0033C35.1567 8.46934 35.1594 6.81604 34.5297 5.28083C33.9 3.74563 32.6702 2.40752 31.0171 1.45871C29.364 0.509894 27.3726 -0.000792358 25.3289 9.22789e-07H9.67105C7.62738 -0.000792358 5.63596 0.509894 3.98286 1.45871C2.32976 2.40752 1.10003 3.74563 0.47032 5.28083C-0.159394 6.81604 -0.156691 8.46934 0.478041 10.0033C1.11277 11.5372 2.34687 12.8728 4.00307 13.8182C2.76382 14.5249 1.75472 15.4538 1.0588 16.5285C0.36287 17.6032 -1.07903e-05 18.793 2.40639e-10 20.0001C1.07908e-05 21.2071 0.362913 22.3969 1.05886 23.4716C1.75481 24.5463 2.76391 25.4752 4.00318 26.1819C2.66264 26.9483 1.59371 27.9736 0.898721 29.1597C0.203733 30.3457 -0.0940396 31.6528 0.03391 32.9557C0.16186 34.2587 0.711248 35.5139 1.62948 36.6012C2.54771 37.6885 3.80403 38.5714 5.27818 39.1655C6.75232 39.7596 8.39493 40.045 10.0487 39.9942C11.7025 39.9435 13.3122 39.5585 14.7235 38.8759C16.1349 38.1933 17.3007 37.2361 18.1094 36.0958C18.9181 34.9556 19.3425 33.6705 19.3421 32.3637V25.9906C20.3516 26.6206 21.5102 27.0851 22.75 27.3568C23.9898 27.6285 25.2858 27.7021 26.5621 27.5731C27.8384 27.4441 29.0692 27.1152 30.1823 26.6056C31.2955 26.0961 32.2686 25.4161 33.0446 24.6057C33.8206 23.7953 34.3838 22.8707 34.7012 21.8861C35.0187 20.9015 35.084 19.8768 34.8932 18.872C34.7025 17.8672 34.2596 16.9027 33.5906 16.0348C32.9215 15.167 32.0397 14.4134 30.9969 13.8182ZM31.3158 7.63643C31.314 8.88914 30.6833 10.0902 29.5619 10.9763C28.4405 11.8624 26.9199 12.3613 25.3334 12.3637L25.3289 12.3636L25.3201 12.3637L19.3421 12.3636V2.90912H25.3289C26.9162 2.91054 28.4379 3.40905 29.5603 4.29528C30.6827 5.18152 31.314 6.38311 31.3158 7.63643ZM3.68421 7.63643C3.68601 6.38311 4.31734 5.18152 5.4397 4.29528C6.56206 3.40905 8.08379 2.91054 9.67105 2.90912H15.6579V12.3636H9.67105L9.66668 12.3637C8.0802 12.3613 6.5596 11.8624 5.43818 10.9763C4.31677 10.0902 3.68603 8.88915 3.68421 7.63643ZM3.68421 20C3.68602 18.7473 4.31676 17.5462 5.43818 16.6601C6.55959 15.774 8.08019 15.2751 9.66668 15.2728L9.67105 15.2729L15.6579 15.2727V24.7271L9.67105 24.7273C8.08379 24.7259 6.56206 24.2274 5.4397 23.3412C4.31734 22.4549 3.68601 21.2533 3.68421 20ZM9.67105 37.0909C8.88442 37.0914 8.10537 36.9696 7.37842 36.7322C6.65147 36.4949 5.99088 36.1468 5.4344 35.7078C4.87793 35.2688 4.43648 34.7474 4.13529 34.1736C3.8341 33.5998 3.67907 32.9848 3.67907 32.3637C3.67907 31.7425 3.8341 31.1275 4.13529 30.5537C4.43648 29.9799 4.87793 29.4586 5.4344 29.0195C5.99088 28.5805 6.65147 28.2324 7.37842 27.9951C8.10537 27.7578 8.88442 27.6359 9.67105 27.6364L15.6579 27.6363V32.3637C15.6561 33.617 15.0247 34.8185 13.9024 35.7048C12.78 36.591 11.2583 37.0895 9.67105 37.0909ZM25.3289 24.7273C23.7422 24.727 22.2205 24.2293 21.0982 23.3436C19.976 22.4578 19.3449 21.2565 19.3437 20.0036C19.3425 18.7507 19.9713 17.5486 21.092 16.6616C22.2126 15.7745 23.7333 15.275 25.3201 15.2729H25.3289L25.3333 15.2728C26.9201 15.2745 28.441 15.7735 29.5621 16.6603C30.6831 17.547 31.3125 18.7489 31.3119 20.0018C31.3113 21.2547 30.6808 22.4562 29.559 23.3423C28.4371 24.2283 26.9157 24.7265 25.3289 24.7273Z" fill="black"/>
</svg>
