<svg width="48" height="48" viewBox="0 0 48 48" fill="none" xmlns="http://www.w3.org/2000/svg">
<g clip-path="url(#clip0_41_20)">
<path d="M75 0H0V75H75V0Z" fill="#F5DE19"/>
<path d="M31.2131 35.8126C31.571 36.5395 32.1269 37.1505 32.817 37.5751C33.507 37.9997 34.303 38.2207 35.1131 38.2126C36.7481 38.2126 37.7936 37.3951 37.7936 36.2626C37.7936 34.9126 36.7196 34.4296 34.9196 33.6421L33.9326 33.2191C31.0826 32.0056 29.1926 30.4861 29.1926 27.2731C29.1926 24.3136 31.4426 22.0591 34.9721 22.0591C36.1147 21.9766 37.2562 22.2323 38.2544 22.7943C39.2526 23.3564 40.0632 24.1999 40.5851 25.2196L37.4996 27.1921C37.2986 26.6865 36.9487 26.2539 36.4963 25.9517C36.0438 25.6495 35.5102 25.492 34.9661 25.5001C34.7288 25.4763 34.4891 25.5023 34.2623 25.5763C34.0355 25.6503 33.8266 25.7707 33.649 25.9299C33.4713 26.0891 33.3287 26.2835 33.2304 26.5008C33.132 26.7181 33.08 26.9536 33.0776 27.1921C33.0776 28.3756 33.8111 28.8556 35.5046 29.5921L36.4916 30.0151C39.8456 31.4536 41.7416 32.9191 41.7416 36.2146C41.7416 39.7681 38.9501 41.7151 35.2016 41.7151C33.7411 41.8082 32.2848 41.4766 31.0085 40.7603C29.7323 40.0441 28.6906 38.9738 28.0091 37.6786L31.2131 35.8126ZM17.2706 36.1546C17.8901 37.2541 18.4541 38.1841 19.8101 38.1841C21.1061 38.1841 21.9251 37.6771 21.9251 35.7046V22.2841H25.8716V35.7571C25.8716 39.8431 23.4716 41.7031 19.9781 41.7031C18.7432 41.7706 17.5168 41.4629 16.4601 40.8203C15.4034 40.1778 14.5659 39.2305 14.0576 38.1031L17.2706 36.1546Z" fill="black"/>
</g>
<defs>
<clipPath id="clip0_41_20">
<rect width="48" height="48" fill="white"/>
</clipPath>
</defs>
</svg>
