<svg width="42" height="40" viewBox="0 0 42 40" fill="none" xmlns="http://www.w3.org/2000/svg">
<g clip-path="url(#clip0_41_38)">
<path d="M41.5332 20C41.5332 16.8333 38.111 14.1667 32.6665 12.5C34.0665 6.66667 33.5999 2.16667 31.111 0.5C30.4888 0.166667 29.8665 0 29.0888 0C26.7554 0 23.6443 1.83333 20.5332 5C17.4221 1.83333 14.4665 0 11.9776 0C11.1999 0 10.5776 0.166667 9.95543 0.5C7.62209 2.16667 7.15543 6.66667 8.39987 12.5C3.11098 14.1667 -0.466797 17 -0.466797 20C-0.466797 23.1667 2.95543 25.8333 8.39987 27.5C7.15543 33.3333 7.62209 38 10.111 39.5C10.7332 39.8333 11.3554 40 12.1332 40C14.4665 40 17.5776 38.1667 20.6888 35C23.7999 38.1667 26.7554 40 29.2443 40C30.0221 40 30.6443 39.8333 31.2665 39.5C33.7554 38 34.2221 33.3333 32.9776 27.5C38.111 25.8333 41.5332 23 41.5332 20ZM29.0888 2.16667C29.5554 2.16667 29.8665 2.16667 30.0221 2.5C31.2665 3.16667 31.7332 5.83333 31.2665 9.33333C31.111 10.1667 30.9554 11.1667 30.7999 12C29.0888 11.5 27.3776 11.3333 25.3554 11C24.2665 9.33333 23.1776 7.83333 21.9332 6.5C24.7332 3.66667 27.3776 2.16667 29.0888 2.16667ZM26.2888 23.5C25.6665 24.6667 25.0443 25.8333 24.2665 26.8333C23.0221 27 21.7776 27 20.5332 27C19.2888 27 18.0443 27 16.7999 26.8333C16.1776 25.8333 15.5554 24.6667 14.7776 23.5C14.1554 22.3333 13.5332 21.1667 13.0665 20C13.5332 18.8333 14.1554 17.6667 14.7776 16.5C15.3999 15.3333 16.1776 14.1667 16.7999 13C18.0443 12.8333 19.2888 12.8333 20.5332 12.8333C21.7776 12.8333 23.0221 12.8333 24.2665 13C24.8888 14 25.6665 15.1667 26.2888 16.5C26.911 17.6667 27.5332 18.8333 27.9999 20C27.5332 21.1667 26.911 22.3333 26.2888 23.5ZM29.0888 22.5C29.5554 23.6667 29.8665 24.8333 30.1776 25.8333C29.0888 26.1667 27.9999 26.3333 26.911 26.5C27.2221 25.8333 27.6888 25.1667 27.9999 24.5C28.4665 24 28.7776 23.1667 29.0888 22.5ZM20.5332 32C19.7554 31.1667 18.9776 30.1667 18.3554 29.1667C19.1332 29.1667 19.911 29.1667 20.5332 29.1667C21.311 29.1667 22.0888 29.1667 22.711 29.1667C22.0888 30.1667 21.311 31.1667 20.5332 32ZM14.1554 26.6667C13.0665 26.5 11.9776 26.3333 10.8888 26C11.1999 24.8333 11.6665 23.6667 11.9776 22.6667C12.2888 23.3333 12.5999 24 13.0665 24.6667C13.5332 25.3333 13.8443 26 14.1554 26.6667ZM11.9776 17.5C11.511 16.3333 11.1999 15.1667 10.7332 14C11.8221 13.6667 12.911 13.5 14.1554 13.3333C13.6888 14 13.3776 14.6667 12.911 15.3333C12.7554 16.1667 12.4443 16.8333 11.9776 17.5ZM20.5332 8C21.311 8.83333 21.9332 9.83333 22.711 10.6667C21.9332 10.6667 21.311 10.6667 20.5332 10.6667C19.7554 10.6667 19.1332 10.6667 18.3554 10.6667C19.1332 9.83333 19.911 8.83333 20.5332 8ZM27.9999 15.3333C27.5332 14.6667 27.2221 14 26.7554 13.3333C27.9999 13.5 29.0888 13.6667 30.1776 14C29.8665 15.1667 29.3999 16.3333 28.9332 17.5C28.7776 16.8333 28.4665 16.1667 27.9999 15.3333ZM9.95543 9.16667C9.48876 5.66667 9.95543 3.16667 11.1999 2.33333C11.511 2.16667 11.8221 2 12.1332 2C13.8443 2 16.3332 3.5 19.1332 6.33333C18.0443 7.66667 16.7999 9.16667 15.711 10.8333C13.8443 11 11.9776 11.3333 10.2665 11.8333C10.111 11 9.95543 10 9.95543 9.16667ZM6.5332 24.5C3.57765 23.1667 1.55543 21.3333 1.55543 20C1.55543 18.5 3.42209 16.8333 6.37765 15.5C7.15542 15.1667 7.9332 14.8333 8.86654 14.6667C9.3332 16.5 9.95543 18.3333 10.8888 20.1667C10.111 22 9.48876 23.8333 9.02209 25.5C8.08876 25.1667 7.31098 24.8333 6.5332 24.5ZM11.0443 37.6667C9.79987 37 9.3332 34.3333 9.79987 30.8333C9.95543 30 10.111 29 10.2665 28C11.9776 28.3333 13.6888 28.6667 15.5554 28.8333C16.6443 30.5 17.8888 32 18.9776 33.3333C16.1776 36.1667 13.6888 37.6667 11.9776 37.6667C11.6665 37.8333 11.3554 37.6667 11.0443 37.6667ZM31.2665 30.8333C31.7332 34.3333 31.2665 36.8333 30.0221 37.6667C29.711 37.8333 29.3999 38 29.0888 38C27.3776 38 24.8888 36.5 22.0888 33.6667C23.3332 32.3333 24.4221 30.8333 25.511 29.1667C27.3776 29 29.2443 28.6667 30.7999 28.3333C30.9554 29 31.111 29.8333 31.2665 30.8333ZM34.6888 24.5C33.911 24.8333 33.1332 25.1667 32.1999 25.3333C31.7332 23.6667 31.111 21.8333 30.3332 20C31.111 18.1667 31.7332 16.3333 32.3554 14.5C33.1332 14.8333 34.0665 15 34.8443 15.3333C37.7999 16.6667 39.6665 18.3333 39.6665 19.8333C39.511 21.3333 37.6443 23.1667 34.6888 24.5Z" fill="black"/>
<path d="M20.6877 24.1668C22.8655 24.1668 24.5766 22.3335 24.5766 20.0002C24.5766 17.6668 22.8655 15.8335 20.6877 15.8335C18.5099 15.8335 16.7988 17.6668 16.7988 20.0002C16.7988 22.3335 18.5099 24.1668 20.6877 24.1668Z" fill="black"/>
</g>
<defs>
<clipPath id="clip0_41_38">
<rect width="42" height="40" fill="white"/>
</clipPath>
</defs>
</svg>
